<svg width="64" height="64" viewBox="0 0 64 64" fill="none" xmlns="http://www.w3.org/2000/svg">
<path d="M18.449 1.51465L15.8785 12.9798L3.84114 38.2243L2.5 20.7373L18.449 1.51465Z" fill="#101820"/>
<path d="M20.6776 1L48.802 22.8259L38.0992 46.0259L18.6856 13.0897L20.6776 1Z" fill="#101820"/>
<path d="M61.3516 21.4702L57.6963 47.2735L40.6691 46.4846L52.0885 23.9223L61.3516 21.4702Z" fill="#101820"/>
<path d="M16.9394 18.271L5.63831 41.037L35.3471 46.5264L16.9394 18.271Z" fill="#101820"/>
<path d="M57.2956 50.2565L38.9601 50.0527L27.613 61.702L57.2956 50.2565Z" fill="#101820"/>
<path d="M5.28772 43.8164L35.1017 49.3386L20.7831 62.9996L5.28772 43.8164Z" fill="#101820"/>
<path d="M24.833 1L51.7346 20.1897L60.6361 18.5199L24.833 1Z" fill="#101820"/>
</svg>
