<svg width="40" height="40" viewBox="0 0 40 40" fill="none" xmlns="http://www.w3.org/2000/svg">
<path fill-rule="evenodd" clip-rule="evenodd" d="M31.8395 18.6304L26.8802 10.4289L29.4489 6.22534L36.95 18.6304H31.8395ZM14.9583 30.1567H24.9847L27.4876 34.2593H12.5004L14.9583 30.1567ZM24.9811 9.31899H14.9462L12.4934 5.20674H27.4939L24.9811 9.31899ZM24.9735 27.95H14.9434L9.97748 19.7379L14.9434 11.5257H24.9735L29.9392 19.7379L24.9735 27.95ZM10.5456 6.23417L13.0422 10.4197L8.07878 18.6278H3.05147L10.5456 6.23417ZM3.04918 20.8345H8.07059L13.0481 29.0659L10.549 33.2375L3.04918 20.8345ZM29.4456 33.2461L26.882 29.0439L31.8445 20.8371H36.9491L29.4456 33.2461ZM30.3894 3.53052C30.1902 3.20111 29.8344 3 29.4508 3H10.549C10.1654 3 9.80955 3.20111 9.61048 3.53052L0.15969 19.1601C-0.0531633 19.5121 -0.0532631 19.9538 0.15959 20.3058L9.61048 35.9354C9.80955 36.2649 10.1654 36.4661 10.549 36.4661H29.4508C29.8344 36.4661 30.1902 36.2649 30.3894 35.9354L39.8403 20.3058C40.0532 19.9538 40.0532 19.5121 39.8403 19.1601L30.3894 3.53052Z" fill="#FD627A"/>
<path fill-rule="evenodd" clip-rule="evenodd" d="M25.6424 21.4565C25.1301 21.1306 24.4515 21.2834 24.127 21.7982L22.1832 24.8815C21.8588 25.3963 22.011 26.078 22.5234 26.4041C22.7057 26.52 22.9091 26.5754 23.11 26.5754C23.4737 26.5754 23.8298 26.394 24.0388 26.0623L25.9825 22.979C26.3071 22.4643 26.1548 21.7826 25.6424 21.4565Z" fill="#FD627A"/>
<path fill-rule="evenodd" clip-rule="evenodd" d="M27.2406 18.6174C26.718 18.3084 26.0446 18.4837 25.7371 19.009L25.5942 19.2532C25.2867 19.7784 25.4612 20.4547 25.984 20.7636C26.1588 20.867 26.3505 20.9162 26.5397 20.9162C26.9161 20.9162 27.2827 20.7216 27.4874 20.372L27.6303 20.1279C27.9378 19.6026 27.7633 18.9264 27.2406 18.6174Z" fill="#FD627A"/>
</svg>
